<svg width="48" height="48" viewBox="0 0 48 48" fill="none" xmlns="http://www.w3.org/2000/svg">
<g clip-path="url(#clip0_993_7500)">
<rect width="48" height="48" fill="#B8B8B8" style="fill:#B8B8B8;fill:color(display-p3 0.7200 0.7200 0.7200);fill-opacity:1;"/>
<rect x="13.1562" y="10.9595" width="24" height="24" rx="4" transform="rotate(6.00412 13.1562 10.9595)" fill="#ECEBE9" style="fill:#ECEBE9;fill:color(display-p3 0.9270 0.9235 0.9130);fill-opacity:1;"/>
<rect x="10.4863" y="7.66211" width="8" height="8" rx="4" transform="rotate(6.00412 10.4863 7.66211)" fill="#636363" style="fill:#636363;fill:color(display-p3 0.3900 0.3900 0.3900);fill-opacity:1;"/>
<path d="M12.0571 11.8496L16.0352 12.268" stroke="#ECEBE9" style="stroke:#ECEBE9;stroke:color(display-p3 0.9270 0.9235 0.9130);stroke-opacity:1;" stroke-linecap="round"/>
<rect x="12" y="-19" width="24" height="24" rx="4" fill="#ECEBE9" style="fill:#ECEBE9;fill:color(display-p3 0.9270 0.9235 0.9130);fill-opacity:1;"/>
<rect x="11.2935" y="43.7578" width="24" height="24" rx="4" transform="rotate(-4 11.2935 43.7578)" fill="#ECEBE9" style="fill:#ECEBE9;fill:color(display-p3 0.9270 0.9235 0.9130);fill-opacity:1;"/>
<rect x="8.09131" y="40.9746" width="8" height="8" rx="4" transform="rotate(-4 8.09131 40.9746)" fill="#636363" style="fill:#636363;fill:color(display-p3 0.3900 0.3900 0.3900);fill-opacity:1;"/>
<path d="M10.3652 44.8252L14.3555 44.5462" stroke="#ECEBE9" style="stroke:#ECEBE9;stroke:color(display-p3 0.9270 0.9235 0.9130);stroke-opacity:1;" stroke-linecap="round"/>
<rect x="42.293" y="-18.2422" width="24" height="24" rx="4" transform="rotate(-4 42.293 -18.2422)" fill="#ECEBE9" style="fill:#ECEBE9;fill:color(display-p3 0.9270 0.9235 0.9130);fill-opacity:1;"/>
<rect x="43.373" y="42.6401" width="24" height="24" rx="4" transform="rotate(2 43.373 42.6401)" fill="#ECEBE9" style="fill:#ECEBE9;fill:color(display-p3 0.9270 0.9235 0.9130);fill-opacity:1;"/>
<rect x="40.4795" y="39.5371" width="8" height="8" rx="4" transform="rotate(2 40.4795 39.5371)" fill="#636363" style="fill:#636363;fill:color(display-p3 0.3900 0.3900 0.3900);fill-opacity:1;"/>
<path d="M42.3389 43.6045L46.3364 43.7441" stroke="#ECEBE9" style="stroke:#ECEBE9;stroke:color(display-p3 0.9270 0.9235 0.9130);stroke-opacity:1;" stroke-linecap="round"/>
<rect x="-18.627" y="-19.3599" width="24" height="24" rx="4" transform="rotate(2 -18.627 -19.3599)" fill="#ECEBE9" style="fill:#ECEBE9;fill:color(display-p3 0.9270 0.9235 0.9130);fill-opacity:1;"/>
<rect x="-19.707" y="43.7578" width="24" height="24" rx="4" transform="rotate(-4 -19.707 43.7578)" fill="#ECEBE9" style="fill:#ECEBE9;fill:color(display-p3 0.9270 0.9235 0.9130);fill-opacity:1;"/>
<rect x="42.2935" y="12.7578" width="24" height="24" rx="4" transform="rotate(-4 42.2935 12.7578)" fill="#ECEBE9" style="fill:#ECEBE9;fill:color(display-p3 0.9270 0.9235 0.9130);fill-opacity:1;"/>
<rect x="39.0913" y="9.97461" width="8" height="8" rx="4" transform="rotate(-4 39.0913 9.97461)" fill="#636363" style="fill:#636363;fill:color(display-p3 0.3900 0.3900 0.3900);fill-opacity:1;"/>
<path d="M41.3652 13.8252L45.3555 13.5462" stroke="#ECEBE9" style="stroke:#ECEBE9;stroke:color(display-p3 0.9270 0.9235 0.9130);stroke-opacity:1;" stroke-linecap="round"/>
<rect x="-19" y="12" width="24" height="24" rx="4" fill="#ECEBE9" style="fill:#ECEBE9;fill:color(display-p3 0.9270 0.9235 0.9130);fill-opacity:1;"/>
</g>
<defs>
<clipPath id="clip0_993_7500">
<rect width="48" height="48" fill="white" style="fill:white;fill-opacity:1;"/>
</clipPath>
</defs>
</svg>
