<svg width="32" height="32" viewBox="0 0 32 32" fill="none" xmlns="http://www.w3.org/2000/svg">
<path fill-rule="evenodd" clip-rule="evenodd" d="M20.2413 6H11.7587H11.7587C10.9537 5.99999 10.2894 5.99998 9.74818 6.04419C9.18608 6.09012 8.66937 6.18868 8.18404 6.43598C7.43139 6.81947 6.81947 7.43139 6.43598 8.18404C6.18868 8.66937 6.09012 9.18608 6.04419 9.74818C5.99998 10.2894 5.99999 10.9537 6 11.7587V11.7587V20.2413V20.2413C5.99999 21.0463 5.99998 21.7106 6.04419 22.2518C6.09012 22.8139 6.18868 23.3306 6.43598 23.816C6.81947 24.5686 7.43139 25.1805 8.18404 25.564C8.66937 25.8113 9.18608 25.9099 9.74818 25.9558C10.2894 26 10.9537 26 11.7587 26H20.2413C21.0463 26 21.7106 26 22.2518 25.9558C22.8139 25.9099 23.3306 25.8113 23.816 25.564C24.5686 25.1805 25.1805 24.5686 25.564 23.816C25.8113 23.3306 25.9099 22.8139 25.9558 22.2518C26 21.7106 26 21.0463 26 20.2413V11.7587C26 10.9537 26 10.2894 25.9558 9.74818C25.9099 9.18608 25.8113 8.66937 25.564 8.18404C25.1805 7.43139 24.5686 6.81947 23.816 6.43598C23.3306 6.18868 22.8139 6.09012 22.2518 6.04419C21.7106 5.99998 21.0463 5.99999 20.2413 6H20.2413ZM21.2071 13.7071C21.5976 13.3166 21.5976 12.6834 21.2071 12.2929C20.8166 11.9024 20.1834 11.9024 19.7929 12.2929L14.5 17.5858L12.2071 15.2929C11.8166 14.9024 11.1834 14.9024 10.7929 15.2929C10.4024 15.6834 10.4024 16.3166 10.7929 16.7071L13.7929 19.7071C14.1834 20.0976 14.8166 20.0976 15.2071 19.7071L21.2071 13.7071Z" fill="#181818" style="fill:#181818;fill:color(display-p3 0.0933 0.0933 0.0933);fill-opacity:1;"/>
</svg>
